# Blender 3.6.5
# www.blender.org
mtllib cylinder.mtl
o CylinderHat
v -0.478896 3.417346 -1.318800
v -0.423451 3.391669 -1.524125
v -0.271973 3.372872 -1.674433
v -0.065049 3.365992 -1.729449
v -0.478896 3.445705 -1.092028
v -0.423451 3.471382 -0.886703
v -0.065049 3.497059 -0.681379
v -0.271973 3.490179 -0.736395
v -0.051261 3.476622 -0.887838
v -0.303410 3.445333 -1.138038
v -0.177336 3.472430 -0.921359
v -0.269628 3.460978 -1.012938
v -0.303410 4.045959 -1.213149
v -0.051261 4.077248 -0.962950
v -0.269628 4.061604 -1.088049
v -0.177336 4.073056 -0.996470
v -0.303410 3.428055 -1.276205
v -0.051261 3.396766 -1.526405
v -0.269628 3.412410 -1.401305
v -0.177336 3.400958 -1.492884
v -0.051261 3.997392 -1.601516
v -0.303410 4.028680 -1.351317
v -0.177336 4.001584 -1.567996
v -0.269628 4.013036 -1.476416
v 0.301895 3.445333 -1.138038
v 0.049746 3.476622 -0.887838
v 0.268113 3.460978 -1.012938
v 0.175820 3.472430 -0.921359
v 0.049746 4.077248 -0.962950
v 0.301895 4.045959 -1.213149
v 0.175820 4.073056 -0.996470
v 0.268113 4.061604 -1.088049
v 0.049746 3.396766 -1.526405
v 0.301895 3.428055 -1.276205
v 0.175820 3.400958 -1.492884
v 0.268113 3.412410 -1.401305
v 0.301895 4.028680 -1.351317
v 0.049746 3.997392 -1.601516
v 0.268113 4.013036 -1.476416
v 0.175820 4.001584 -1.567996
v 0.514581 3.417346 -1.318800
v 0.459136 3.391669 -1.524125
v 0.307657 3.372872 -1.674433
v 0.100734 3.365992 -1.729449
v 0.100734 3.497059 -0.681379
v 0.307657 3.490179 -0.736395
v 0.459136 3.471382 -0.886703
v 0.514581 3.445705 -1.092028
v 0.459136 3.432297 -0.881815
v 0.514581 3.406620 -1.087140
v 0.307657 3.451093 -0.731507
v 0.307657 3.333787 -1.669545
v 0.100734 3.326907 -1.724561
v 0.514581 3.378261 -1.313912
v 0.459136 3.352584 -1.519237
v -0.423451 3.352584 -1.519237
v -0.478896 3.378261 -1.313912
v -0.271973 3.333787 -1.669545
v -0.271973 3.451093 -0.731507
v -0.065049 3.457974 -0.676491
v -0.065049 3.326907 -1.724561
v -0.423451 3.432297 -0.881815
v -0.478896 3.406620 -1.087140
v 0.100734 3.457974 -0.676491
vn 0.0892 0.8070 0.5837
vn 0.0958 0.7640 0.6381
vn -0.0958 0.7640 0.6381
vn -0.0896 0.8069 0.5839
vn 0.6791 0.7119 -0.1790
vn 0.7280 0.6617 -0.1793
vn 0.7280 0.6855 0.0109
vn 0.6791 0.7340 -0.0018
vn -0.6621 0.5919 -0.4597
vn -0.3821 0.5577 -0.7369
vn -0.3786 -0.7295 -0.5696
vn -0.6557 -0.6952 -0.2946
vn 0.6557 0.6012 -0.4567
vn 0.3786 0.5668 -0.7317
vn 0.0958 0.5833 -0.8066
vn -0.0958 0.5833 -0.8066
vn -0.3786 0.5668 -0.7317
vn -0.6557 0.6012 -0.4567
vn -0.7280 0.6617 -0.1793
vn -0.7280 0.6855 0.0109
vn -0.6557 0.6952 0.2946
vn -0.3786 0.7295 0.5696
vn 0.3786 0.7295 0.5696
vn 0.6557 0.6952 0.2946
vn -0.6811 0.7322 -0.0014
vn -0.6811 0.7100 -0.1789
vn -0.0896 0.6381 -0.7647
vn 0.0893 0.6383 -0.7646
vn -0.3249 0.8244 0.4636
vn -0.5634 0.7942 0.2276
vn -0.3249 0.6847 -0.6524
vn -0.5634 0.7136 -0.4163
vn 0.5616 0.7152 -0.4160
vn 0.3239 0.6856 -0.6520
vn 0.3239 0.8251 0.4630
vn 0.5616 0.7957 0.2270
vn 0.6613 0.6881 0.2989
vn 0.7355 0.6773 0.0130
vn 0.0970 0.7564 0.6468
vn 0.3820 0.7227 0.5761
vn 0.6613 0.5932 -0.4591
vn 0.3820 0.5585 -0.7363
vn -0.7371 0.6515 -0.1794
vn -0.7371 0.6757 0.0135
vn 0.0970 0.5738 -0.8133
vn -0.0968 0.5735 -0.8134
vn -0.6620 0.6869 0.2997
vn -0.3820 0.7221 0.5768
vn 0.7356 0.6533 -0.1794
vn -0.0968 0.7563 0.6471
vn -0.7280 -0.6855 -0.0109
vn -0.0958 -0.7640 -0.6381
vn 0.0958 -0.7640 -0.6381
vn 0.3786 -0.7295 -0.5696
vn 0.6557 -0.6952 -0.2946
vn 0.7280 -0.6855 -0.0109
vn 0.7280 -0.6617 0.1793
vn 0.6557 -0.6012 0.4567
vn 0.3786 -0.5668 0.7317
vn 0.0958 -0.5833 0.8066
vn -0.0958 -0.5833 0.8066
vn -0.3786 -0.5668 0.7317
vn -0.6557 -0.6012 0.4567
vn -0.7280 -0.6617 0.1793
vt 0.375000 0.854141
vt 0.625000 0.854141
vt 0.625000 0.895859
vt 0.375000 0.895859
vt 0.375000 0.597954
vt 0.625000 0.597954
vt 0.625000 0.652046
vt 0.375000 0.652046
vt 0.375000 0.201023
vt 0.375000 0.302071
vt 0.625000 0.597954
vt 0.638952 0.548977
vt 0.677071 0.513123
vt 0.729141 0.500000
vt 0.770859 0.500000
vt 0.822929 0.513123
vt 0.861048 0.548977
vt 0.875000 0.597954
vt 0.875000 0.652046
vt 0.861048 0.701023
vt 0.822929 0.736877
vt 0.770859 0.750000
vt 0.729141 0.750000
vt 0.677071 0.736877
vt 0.638952 0.701023
vt 0.375000 0.097954
vt 0.625000 0.097954
vt 0.625000 0.152046
vt 0.375000 0.152046
vt 0.375000 0.354141
vt 0.625000 0.354141
vt 0.625000 0.395859
vt 0.375000 0.395859
vt 0.625000 1.000000
vt 0.375000 1.000000
vt 0.375000 0.000000
vt 0.625000 0.000000
vt 0.625000 0.048977
vt 0.375000 0.048977
vt 0.625000 0.302071
vt 0.625000 0.201023
vt 0.375000 0.548977
vt 0.625000 0.548977
vt 0.375000 0.447929
vt 0.625000 0.447929
vt 0.375000 0.802071
vt 0.625000 0.802071
vt 0.375000 0.701023
vt 0.625000 0.701023
vt 0.125000 0.597954
vt 0.138952 0.548977
vt 0.177071 0.513123
vt 0.229141 0.500000
vt 0.270859 0.500000
vt 0.322929 0.513123
vt 0.361048 0.548977
vt 0.375000 0.597954
vt 0.361048 0.701023
vt 0.322929 0.736877
vt 0.270859 0.750000
vt 0.229141 0.750000
vt 0.177071 0.736877
vt 0.138952 0.701023
vt 0.125000 0.652046
s 1
f 26/1/1 29/2/2 14/3/3 9/4/4
f 34/5/5 37/6/6 30/7/7 25/8/8
f 2/9/9 3/10/10 58/10/11 56/9/12
f 37/11/6 39/12/13 40/13/14 38/14/15 21/15/16 23/16/17 24/17/18 22/18/19 13/19/20 15/20/21 16/21/22 14/22/3 29/23/2 31/24/23 32/25/24 30/7/7
f 10/26/25 13/27/20 22/28/19 17/29/26
f 18/30/27 21/31/16 38/32/15 33/33/28
f 9/4/4 14/3/3 16/34/22 11/35/29
f 11/36/29 16/37/22 15/38/21 12/39/30
f 12/39/30 15/38/21 13/27/20 10/26/25
f 21/31/16 18/30/27 20/10/31 23/40/17
f 23/40/17 20/10/31 19/9/32 24/41/18
f 24/41/18 19/9/32 17/29/26 22/28/19
f 37/6/6 34/5/5 36/42/33 39/43/13
f 39/43/13 36/42/33 35/44/34 40/45/14
f 40/45/14 35/44/34 33/33/28 38/32/15
f 29/2/2 26/1/1 28/46/35 31/47/23
f 31/47/23 28/46/35 27/48/36 32/49/24
f 32/49/24 27/48/36 25/8/8 30/7/7
f 25/8/8 27/48/36 47/48/37 48/8/38
f 28/46/35 26/1/1 45/1/39 46/46/40
f 35/44/34 36/42/33 42/42/41 43/44/42
f 10/26/25 17/29/26 1/29/43 5/26/44
f 17/29/26 19/9/32 2/9/9 1/29/43
f 18/30/27 33/33/28 44/33/45 4/30/46
f 11/36/29 12/39/30 6/39/47 8/36/48
f 20/10/31 18/30/27 4/30/46 3/10/10
f 34/5/5 25/8/8 48/8/38 41/5/49
f 27/48/36 28/46/35 46/46/40 47/48/37
f 33/33/28 35/44/34 43/44/42 44/33/45
f 26/1/1 9/4/4 7/4/50 45/1/39
f 12/39/30 10/26/25 5/26/44 6/39/47
f 36/42/33 34/5/5 41/5/49 42/42/41
f 9/4/4 11/35/29 8/35/48 7/4/50
f 19/9/32 20/10/31 3/10/10 2/9/9
f 57/50/51 56/51/12 58/52/11 61/53/52 53/54/53 52/55/54 55/56/55 54/57/56 50/8/57 49/58/58 51/59/59 64/60/60 60/61/61 59/62/62 62/63/63 63/64/64
f 7/4/50 8/35/48 59/35/62 60/4/61
f 3/10/10 4/30/46 61/30/52 58/10/11
f 48/8/38 47/48/37 49/48/58 50/8/57
f 8/36/48 6/39/47 62/39/63 59/36/62
f 5/26/44 1/29/43 57/29/51 63/26/64
f 47/48/37 46/46/40 51/46/59 49/48/58
f 6/39/47 5/26/44 63/26/64 62/39/63
f 4/30/46 44/33/45 53/33/53 61/30/52
f 44/33/45 43/44/42 52/44/54 53/33/53
f 46/46/40 45/1/39 64/1/60 51/46/59
f 41/5/49 48/8/38 50/8/57 54/5/56
f 42/42/41 41/5/49 54/5/56 55/42/55
f 43/44/42 42/42/41 55/42/55 52/44/54
f 45/1/39 7/4/50 60/4/61 64/1/60
f 1/29/43 2/9/9 56/9/12 57/29/51
