# Blender 3.6.5
# www.blender.org
mtllib glasses.mtl
o Glasses
v -0.029100 3.281250 -0.865577
v -0.039100 3.281250 -0.855577
v -0.049100 3.281250 -0.865577
v -0.039100 3.281250 -0.875577
v -0.049603 3.314110 -0.865577
v -0.056674 3.309416 -0.855577
v -0.063745 3.304722 -0.865577
v -0.056674 3.309416 -0.875577
v -0.099100 3.327721 -0.865577
v -0.099100 3.321082 -0.855577
v -0.099100 3.314444 -0.865577
v -0.099100 3.321082 -0.875577
v -0.148598 3.314110 -0.865577
v -0.141527 3.309416 -0.855577
v -0.134456 3.304722 -0.865577
v -0.141527 3.309416 -0.875577
v -0.169100 3.281250 -0.865577
v -0.159100 3.281250 -0.855577
v -0.149100 3.281250 -0.865577
v -0.159100 3.281250 -0.875577
v -0.148598 3.248391 -0.865577
v -0.141527 3.253085 -0.855577
v -0.134456 3.257779 -0.865577
v -0.141527 3.253085 -0.875577
v -0.099100 3.234780 -0.865577
v -0.099100 3.241419 -0.855577
v -0.099100 3.248057 -0.865577
v -0.099100 3.241419 -0.875577
v -0.049603 3.248391 -0.865577
v -0.056674 3.253085 -0.855577
v -0.063745 3.257779 -0.865577
v -0.056674 3.253085 -0.875577
v 0.029100 3.281250 -0.865577
v 0.039100 3.281250 -0.855577
v 0.049100 3.281250 -0.865577
v 0.039100 3.281250 -0.875577
v 0.049603 3.314110 -0.865577
v 0.056674 3.309416 -0.855577
v 0.063745 3.304722 -0.865577
v 0.056674 3.309416 -0.875577
v 0.099100 3.327721 -0.865577
v 0.099100 3.321082 -0.855577
v 0.099100 3.314444 -0.865577
v 0.099100 3.321082 -0.875577
v 0.148598 3.314110 -0.865577
v 0.141527 3.309416 -0.855577
v 0.134456 3.304722 -0.865577
v 0.141527 3.309416 -0.875577
v 0.169100 3.281250 -0.865577
v 0.159100 3.281250 -0.855577
v 0.149100 3.281250 -0.865577
v 0.159100 3.281250 -0.875577
v 0.148598 3.248391 -0.865577
v 0.141527 3.253085 -0.855577
v 0.134456 3.257779 -0.865577
v 0.141527 3.253085 -0.875577
v 0.099100 3.234780 -0.865577
v 0.099100 3.241419 -0.855577
v 0.099100 3.248057 -0.865577
v 0.099100 3.241419 -0.875577
v 0.049603 3.248391 -0.865577
v 0.056674 3.253085 -0.855577
v 0.063745 3.257779 -0.865577
v 0.056674 3.253085 -0.875577
v -0.044437 3.272558 -0.873098
v -0.044437 3.272558 -0.858057
v -0.044437 3.287600 -0.858057
v -0.044437 3.287600 -0.873098
v 0.004495 3.272558 -0.873098
v 0.004495 3.272558 -0.858057
v 0.004495 3.287600 -0.858057
v 0.004495 3.287600 -0.873098
v -0.256745 3.268796 -1.160256
v -0.278842 3.271054 -1.157204
v -0.278076 3.291362 -1.166674
v -0.255978 3.289105 -1.169726
v -0.164587 3.267443 -0.868450
v -0.185775 3.270504 -0.861786
v -0.182855 3.292716 -0.862705
v -0.161667 3.289654 -0.869369
v -0.256200 3.195121 -1.224545
v -0.278621 3.195121 -1.224545
v -0.278621 3.210084 -1.241243
v -0.256200 3.210084 -1.241243
v 0.044437 3.272558 -0.858057
v 0.044437 3.272558 -0.873098
v 0.044437 3.287600 -0.873098
v 0.044437 3.287600 -0.858057
v -0.004495 3.272558 -0.858057
v -0.004495 3.272558 -0.873098
v -0.004495 3.287600 -0.873098
v -0.004495 3.287600 -0.858057
v 0.278842 3.271054 -1.157204
v 0.256745 3.268796 -1.160256
v 0.255978 3.289105 -1.169726
v 0.278076 3.291362 -1.166674
v 0.185775 3.270504 -0.861786
v 0.164587 3.267443 -0.868450
v 0.161667 3.289654 -0.869369
v 0.182855 3.292716 -0.862705
v 0.278621 3.195121 -1.224545
v 0.256200 3.195121 -1.224545
v 0.256200 3.210084 -1.241243
v 0.278621 3.210084 -1.241243
v -0.032204 3.272558 -0.873098
v -0.032204 3.272558 -0.858057
v -0.032204 3.287600 -0.858057
v -0.032204 3.287600 -0.873098
v -0.019971 3.272558 -0.873098
v -0.019971 3.272558 -0.858057
v -0.019971 3.287600 -0.858057
v -0.019971 3.287600 -0.873098
v -0.007738 3.272558 -0.873098
v -0.007738 3.272558 -0.858057
v -0.007738 3.287600 -0.858057
v -0.007738 3.287600 -0.873098
v -0.251584 3.267443 -1.145060
v -0.272772 3.270504 -1.138396
v -0.269852 3.292716 -1.139315
v -0.248664 3.289654 -1.145978
v -0.244892 3.267443 -1.123782
v -0.266080 3.270504 -1.117118
v -0.263160 3.292716 -1.118037
v -0.241972 3.289654 -1.124701
v -0.238200 3.267443 -1.102505
v -0.259388 3.270504 -1.095841
v -0.256468 3.292716 -1.096759
v -0.235280 3.289654 -1.103423
v -0.231508 3.267443 -1.081227
v -0.252696 3.270504 -1.074563
v -0.249776 3.292716 -1.075482
v -0.228588 3.289654 -1.082145
v -0.224816 3.267443 -1.059949
v -0.246004 3.270504 -1.053285
v -0.243084 3.292716 -1.054204
v -0.221896 3.289654 -1.060868
v -0.218123 3.267443 -1.038672
v -0.239312 3.270504 -1.032008
v -0.236392 3.292716 -1.032926
v -0.215204 3.289654 -1.039590
v -0.211431 3.267443 -1.017394
v -0.232619 3.270504 -1.010730
v -0.229699 3.292716 -1.011648
v -0.208511 3.289654 -1.018312
v -0.204739 3.267443 -0.996116
v -0.225927 3.270504 -0.989452
v -0.223007 3.292716 -0.990371
v -0.201819 3.289654 -0.997035
v -0.198047 3.267443 -0.974839
v -0.219235 3.270504 -0.968175
v -0.216315 3.292716 -0.969093
v -0.195127 3.289654 -0.975757
v -0.191355 3.267443 -0.953561
v -0.212543 3.270504 -0.946897
v -0.209623 3.292716 -0.947815
v -0.188435 3.289654 -0.954479
v -0.184663 3.267443 -0.932283
v -0.205851 3.270504 -0.925619
v -0.202931 3.292716 -0.926538
v -0.181743 3.289654 -0.933202
v -0.177971 3.267443 -0.911006
v -0.199159 3.270504 -0.904342
v -0.196239 3.292716 -0.905260
v -0.175051 3.289654 -0.911924
v -0.171279 3.267443 -0.889728
v -0.192467 3.270504 -0.883064
v -0.189547 3.292716 -0.883982
v -0.168359 3.289654 -0.890646
v -0.256200 3.210616 -1.210660
v -0.278621 3.210616 -1.210660
v -0.278621 3.225580 -1.227357
v -0.256200 3.225580 -1.227357
v -0.256200 3.226112 -1.196774
v -0.278621 3.226112 -1.196774
v -0.278621 3.241075 -1.213471
v -0.256200 3.241075 -1.213471
v -0.256200 3.241607 -1.182888
v -0.278621 3.241607 -1.182888
v -0.278621 3.256570 -1.199586
v -0.256200 3.256570 -1.199586
v -0.256200 3.257102 -1.169002
v -0.278621 3.257102 -1.169002
v -0.278621 3.272066 -1.185700
v -0.256200 3.272066 -1.185700
v 0.032204 3.272558 -0.858057
v 0.032204 3.272558 -0.873098
v 0.032204 3.287600 -0.873098
v 0.032204 3.287600 -0.858057
v 0.019971 3.272558 -0.858057
v 0.019971 3.272558 -0.873098
v 0.019971 3.287600 -0.873098
v 0.019971 3.287600 -0.858057
v 0.007738 3.272558 -0.858057
v 0.007738 3.272558 -0.873098
v 0.007738 3.287600 -0.873098
v 0.007738 3.287600 -0.858057
v 0.272772 3.270504 -1.138396
v 0.251584 3.267443 -1.145060
v 0.248664 3.289654 -1.145978
v 0.269852 3.292716 -1.139315
v 0.266080 3.270504 -1.117118
v 0.244892 3.267443 -1.123782
v 0.241972 3.289654 -1.124701
v 0.263160 3.292716 -1.118037
v 0.259388 3.270504 -1.095841
v 0.238200 3.267443 -1.102505
v 0.235280 3.289654 -1.103423
v 0.256468 3.292716 -1.096759
v 0.252696 3.270504 -1.074563
v 0.231508 3.267443 -1.081227
v 0.228588 3.289654 -1.082145
v 0.249776 3.292716 -1.075482
v 0.246004 3.270504 -1.053285
v 0.224816 3.267443 -1.059949
v 0.221896 3.289654 -1.060868
v 0.243084 3.292716 -1.054204
v 0.239312 3.270504 -1.032008
v 0.218123 3.267443 -1.038672
v 0.215204 3.289654 -1.039590
v 0.236392 3.292716 -1.032926
v 0.232619 3.270504 -1.010730
v 0.211431 3.267443 -1.017394
v 0.208511 3.289654 -1.018312
v 0.229699 3.292716 -1.011648
v 0.225927 3.270504 -0.989452
v 0.204739 3.267443 -0.996116
v 0.201819 3.289654 -0.997035
v 0.223007 3.292716 -0.990371
v 0.219235 3.270504 -0.968175
v 0.198047 3.267443 -0.974839
v 0.195127 3.289654 -0.975757
v 0.216315 3.292716 -0.969093
v 0.212543 3.270504 -0.946897
v 0.191355 3.267443 -0.953561
v 0.188435 3.289654 -0.954479
v 0.209623 3.292716 -0.947815
v 0.205851 3.270504 -0.925619
v 0.184663 3.267443 -0.932283
v 0.181743 3.289654 -0.933202
v 0.202931 3.292716 -0.926538
v 0.199159 3.270504 -0.904342
v 0.177971 3.267443 -0.911006
v 0.175051 3.289654 -0.911924
v 0.196239 3.292716 -0.905260
v 0.192467 3.270504 -0.883064
v 0.171279 3.267443 -0.889728
v 0.168359 3.289654 -0.890646
v 0.189547 3.292716 -0.883982
v 0.278621 3.210616 -1.210660
v 0.256200 3.210616 -1.210660
v 0.256200 3.225580 -1.227357
v 0.278621 3.225580 -1.227357
v 0.278621 3.226112 -1.196774
v 0.256200 3.226112 -1.196774
v 0.256200 3.241075 -1.213471
v 0.278621 3.241075 -1.213471
v 0.278621 3.241607 -1.182888
v 0.256200 3.241607 -1.182888
v 0.256200 3.256570 -1.199586
v 0.278621 3.256570 -1.199586
v 0.278621 3.257102 -1.169002
v 0.256200 3.257102 -1.169002
v 0.256200 3.272066 -1.185700
v 0.278621 3.272066 -1.185700
v -0.029100 3.281250 -0.865577
v -0.039100 3.281250 -0.855577
v -0.049100 3.281250 -0.865577
v -0.039100 3.281250 -0.875577
v -0.049603 3.314110 -0.865577
v -0.056674 3.309416 -0.855577
v -0.063745 3.304722 -0.865577
v -0.056674 3.309416 -0.875577
v -0.099100 3.327721 -0.865577
v -0.099100 3.321082 -0.855577
v -0.099100 3.314444 -0.865577
v -0.099100 3.321082 -0.875577
v -0.148598 3.314110 -0.865577
v -0.141527 3.309416 -0.855577
v -0.134456 3.304722 -0.865577
v -0.141527 3.309416 -0.875577
v -0.169100 3.281250 -0.865577
v -0.159100 3.281250 -0.855577
v -0.149100 3.281250 -0.865577
v -0.159100 3.281250 -0.875577
v -0.148598 3.248391 -0.865577
v -0.141527 3.253085 -0.855577
v -0.134456 3.257779 -0.865577
v -0.141527 3.253085 -0.875577
v -0.099100 3.234780 -0.865577
v -0.099100 3.241419 -0.855577
v -0.099100 3.248057 -0.865577
v -0.099100 3.241419 -0.875577
v -0.049603 3.248391 -0.865577
v -0.056674 3.253085 -0.855577
v -0.063745 3.257779 -0.865577
v -0.056674 3.253085 -0.875577
v -0.044437 3.280079 -0.865577
v 0.004495 3.280079 -0.865577
v -0.267410 3.280079 -1.163465
v -0.173721 3.280079 -0.865577
v -0.267410 3.202603 -1.232894
vn 0.6469 0.4037 0.6469
vn -0.6469 -0.4037 0.6469
vn -0.6469 -0.4037 -0.6469
vn 0.6469 0.4037 -0.6469
vn 0.2233 0.8121 0.5391
vn -0.2233 -0.8121 0.5391
vn -0.2233 -0.8121 -0.5391
vn 0.2233 0.8121 -0.5391
vn -0.2233 0.8121 0.5391
vn 0.2233 -0.8121 0.5391
vn 0.2233 -0.8121 -0.5391
vn -0.2233 0.8121 -0.5391
vn -0.6469 0.4037 0.6469
vn 0.6469 -0.4037 0.6469
vn 0.6469 -0.4037 -0.6469
vn -0.6469 0.4037 -0.6469
vn -1.0000 -0.0000 -0.0000
vn 1.0000 -0.0000 -0.0000
vn 0.3000 -0.0000 0.9539
vn -0.0000 -0.7447 -0.6674
vn -0.3000 -0.0000 0.9539
vn -0.0000 -1.0000 -0.0000
vn -0.0000 -0.0000 1.0000
vn -0.0000 1.0000 -0.0000
vn -0.0000 -0.0000 -1.0000
vn -0.1251 -0.9920 -0.0142
vn -0.9448 0.1527 0.2899
vn 0.1063 0.9919 -0.0693
vn 0.9398 -0.1558 -0.3042
vn -0.1302 -0.9906 0.0410
vn -0.9450 0.1365 0.2972
vn 0.1302 0.9906 -0.0410
vn 0.9450 -0.1365 -0.2972
vn -0.0000 -0.6674 0.7447
vn -0.0000 0.6674 -0.7447
vn 0.0218 -0.6247 0.7806
vn -0.9998 0.0164 -0.0072
vn -0.0142 0.6938 -0.7200
vn 0.9998 -0.0065 0.0206
vn 0.1251 -0.9920 -0.0142
vn -0.9398 -0.1558 -0.3042
vn -0.1063 0.9919 -0.0693
vn 0.9448 0.1527 0.2899
vn 0.1302 -0.9906 0.0410
vn -0.9450 -0.1365 -0.2972
vn -0.1302 0.9906 -0.0410
vn 0.9450 0.1365 0.2972
vn -0.0218 -0.6247 0.7806
vn -0.9998 -0.0065 0.0206
vn 0.0142 0.6938 -0.7200
vn 0.9998 0.0164 -0.0072
vt 0.500000 0.500000
vt 0.625000 0.500000
vt 0.625000 0.750000
vt 0.500000 0.750000
vt 0.625000 1.000000
vt 0.500000 1.000000
vt 0.500000 0.000000
vt 0.625000 0.000000
vt 0.625000 0.250000
vt 0.500000 0.250000
vt 0.750000 0.500000
vt 0.750000 0.750000
vt 0.750000 1.000000
vt 0.750000 0.000000
vt 0.750000 0.250000
vt 0.875000 0.500000
vt 0.875000 0.750000
vt 0.875000 1.000000
vt 0.875000 0.000000
vt 0.875000 0.250000
vt 1.000000 0.500000
vt 1.000000 0.750000
vt 1.000000 1.000000
vt 1.000000 0.000000
vt 1.000000 0.250000
vt 0.000000 0.500000
vt 0.125000 0.500000
vt 0.125000 0.750000
vt 0.000000 0.750000
vt 0.125000 1.000000
vt 0.000000 1.000000
vt 0.000000 0.000000
vt 0.125000 0.000000
vt 0.125000 0.250000
vt 0.000000 0.250000
vt 0.250000 0.500000
vt 0.250000 0.750000
vt 0.250000 1.000000
vt 0.250000 0.000000
vt 0.250000 0.250000
vt 0.375000 0.500000
vt 0.375000 0.750000
vt 0.375000 1.000000
vt 0.375000 0.000000
vt 0.375000 0.250000
s 0
f 1/1/1 5/2/1 6/3/1 2/4/1
f 2/4/2 6/3/2 7/5/2 3/6/2
f 3/7/3 7/8/3 8/9/3 4/10/3
f 4/10/4 8/9/4 5/2/4 1/1/4
f 5/2/5 9/11/5 10/12/5 6/3/5
f 6/3/6 10/12/6 11/13/6 7/5/6
f 7/8/7 11/14/7 12/15/7 8/9/7
f 8/9/8 12/15/8 9/11/8 5/2/8
f 9/11/9 13/16/9 14/17/9 10/12/9
f 10/12/10 14/17/10 15/18/10 11/13/10
f 11/14/11 15/19/11 16/20/11 12/15/11
f 12/15/12 16/20/12 13/16/12 9/11/12
f 13/16/13 17/21/13 18/22/13 14/17/13
f 14/17/14 18/22/14 19/23/14 15/18/14
f 15/19/15 19/24/15 20/25/15 16/20/15
f 16/20/16 20/25/16 17/21/16 13/16/16
f 17/26/2 21/27/2 22/28/2 18/29/2
f 18/29/1 22/28/1 23/30/1 19/31/1
f 19/32/4 23/33/4 24/34/4 20/35/4
f 20/35/3 24/34/3 21/27/3 17/26/3
f 21/27/6 25/36/6 26/37/6 22/28/6
f 22/28/5 26/37/5 27/38/5 23/30/5
f 23/33/8 27/39/8 28/40/8 24/34/8
f 24/34/7 28/40/7 25/36/7 21/27/7
f 25/36/10 29/41/10 30/42/10 26/37/10
f 26/37/9 30/42/9 31/43/9 27/38/9
f 27/39/12 31/44/12 32/45/12 28/40/12
f 28/40/11 32/45/11 29/41/11 25/36/11
f 29/41/14 1/1/14 2/4/14 30/42/14
f 30/42/13 2/4/13 3/6/13 31/43/13
f 31/44/16 3/7/16 4/10/16 32/45/16
f 32/45/15 4/10/15 1/1/15 29/41/15
f 33/1/13 34/4/13 38/3/13 37/2/13
f 34/4/14 35/6/14 39/5/14 38/3/14
f 35/7/15 36/10/15 40/9/15 39/8/15
f 36/10/16 33/1/16 37/2/16 40/9/16
f 37/2/9 38/3/9 42/12/9 41/11/9
f 38/3/10 39/5/10 43/13/10 42/12/10
f 39/8/11 40/9/11 44/15/11 43/14/11
f 40/9/12 37/2/12 41/11/12 44/15/12
f 41/11/5 42/12/5 46/17/5 45/16/5
f 42/12/6 43/13/6 47/18/6 46/17/6
f 43/14/7 44/15/7 48/20/7 47/19/7
f 44/15/8 41/11/8 45/16/8 48/20/8
f 45/16/1 46/17/1 50/22/1 49/21/1
f 46/17/2 47/18/2 51/23/2 50/22/2
f 47/19/3 48/20/3 52/25/3 51/24/3
f 48/20/4 45/16/4 49/21/4 52/25/4
f 49/26/14 50/29/14 54/28/14 53/27/14
f 50/29/13 51/31/13 55/30/13 54/28/13
f 51/32/16 52/35/16 56/34/16 55/33/16
f 52/35/15 49/26/15 53/27/15 56/34/15
f 53/27/10 54/28/10 58/37/10 57/36/10
f 54/28/9 55/30/9 59/38/9 58/37/9
f 55/33/12 56/34/12 60/40/12 59/39/12
f 56/34/11 53/27/11 57/36/11 60/40/11
f 57/36/6 58/37/6 62/42/6 61/41/6
f 58/37/5 59/38/5 63/43/5 62/42/5
f 59/39/8 60/40/8 64/45/8 63/44/8
f 60/40/7 57/36/7 61/41/7 64/45/7
f 61/41/2 62/42/2 34/4/2 33/1/2
f 62/42/1 63/43/1 35/6/1 34/4/1
f 63/44/4 64/45/4 36/10/4 35/7/4
f 64/45/3 61/41/3 33/1/3 36/10/3
f 65/32/17 66/32/17 67/32/17 68/32/17
f 72/32/18 71/32/18 70/32/18 69/32/18
f 80/32/19 79/32/19 78/32/19 77/32/19
f 81/32/20 82/32/20 83/32/20 84/32/20
f 85/32/18 86/32/18 87/32/18 88/32/18
f 92/32/17 91/32/17 90/32/17 89/32/17
f 100/32/21 99/32/21 98/32/21 97/32/21
f 101/32/20 102/32/20 103/32/20 104/32/20
f 105/32/22 106/32/22 66/32/22 65/32/22
f 106/32/23 107/32/23 67/32/23 66/32/23
f 107/32/24 108/32/24 68/32/24 67/32/24
f 108/32/25 105/32/25 65/32/25 68/32/25
f 109/32/22 110/32/22 106/32/22 105/32/22
f 110/32/23 111/32/23 107/32/23 106/32/23
f 111/32/24 112/32/24 108/32/24 107/32/24
f 112/32/25 109/32/25 105/32/25 108/32/25
f 113/32/22 114/32/22 110/32/22 109/32/22
f 114/32/23 115/32/23 111/32/23 110/32/23
f 115/32/24 116/32/24 112/32/24 111/32/24
f 116/32/25 113/32/25 109/32/25 112/32/25
f 69/32/22 70/32/22 114/32/22 113/32/22
f 70/32/23 71/32/23 115/32/23 114/32/23
f 71/32/24 72/32/24 116/32/24 115/32/24
f 72/32/25 69/32/25 113/32/25 116/32/25
f 117/32/26 118/32/26 74/32/26 73/32/26
f 118/32/27 119/32/27 75/32/27 74/32/27
f 119/32/28 120/32/28 76/32/28 75/32/28
f 120/32/29 117/32/29 73/32/29 76/32/29
f 121/32/30 122/32/30 118/32/30 117/32/30
f 122/32/31 123/32/31 119/32/31 118/32/31
f 123/32/32 124/32/32 120/32/32 119/32/32
f 124/32/33 121/32/33 117/32/33 120/32/33
f 125/32/30 126/32/30 122/32/30 121/32/30
f 126/32/31 127/32/31 123/32/31 122/32/31
f 127/32/32 128/32/32 124/32/32 123/32/32
f 128/32/33 125/32/33 121/32/33 124/32/33
f 129/32/30 130/32/30 126/32/30 125/32/30
f 130/32/31 131/32/31 127/32/31 126/32/31
f 131/32/32 132/32/32 128/32/32 127/32/32
f 132/32/33 129/32/33 125/32/33 128/32/33
f 133/32/30 134/32/30 130/32/30 129/32/30
f 134/32/31 135/32/31 131/32/31 130/32/31
f 135/32/32 136/32/32 132/32/32 131/32/32
f 136/32/33 133/32/33 129/32/33 132/32/33
f 137/32/30 138/32/30 134/32/30 133/32/30
f 138/32/31 139/32/31 135/32/31 134/32/31
f 139/32/32 140/32/32 136/32/32 135/32/32
f 140/32/33 137/32/33 133/32/33 136/32/33
f 141/32/30 142/32/30 138/32/30 137/32/30
f 142/32/31 143/32/31 139/32/31 138/32/31
f 143/32/32 144/32/32 140/32/32 139/32/32
f 144/32/33 141/32/33 137/32/33 140/32/33
f 145/32/30 146/32/30 142/32/30 141/32/30
f 146/32/31 147/32/31 143/32/31 142/32/31
f 147/32/32 148/32/32 144/32/32 143/32/32
f 148/32/33 145/32/33 141/32/33 144/32/33
f 149/32/30 150/32/30 146/32/30 145/32/30
f 150/32/31 151/32/31 147/32/31 146/32/31
f 151/32/32 152/32/32 148/32/32 147/32/32
f 152/32/33 149/32/33 145/32/33 148/32/33
f 153/32/30 154/32/30 150/32/30 149/32/30
f 154/32/31 155/32/31 151/32/31 150/32/31
f 155/32/32 156/32/32 152/32/32 151/32/32
f 156/32/33 153/32/33 149/32/33 152/32/33
f 157/32/30 158/32/30 154/32/30 153/32/30
f 158/32/31 159/32/31 155/32/31 154/32/31
f 159/32/32 160/32/32 156/32/32 155/32/32
f 160/32/33 157/32/33 153/32/33 156/32/33
f 161/32/30 162/32/30 158/32/30 157/32/30
f 162/32/31 163/32/31 159/32/31 158/32/31
f 163/32/32 164/32/32 160/32/32 159/32/32
f 164/32/33 161/32/33 157/32/33 160/32/33
f 165/32/30 166/32/30 162/32/30 161/32/30
f 166/32/31 167/32/31 163/32/31 162/32/31
f 167/32/32 168/32/32 164/32/32 163/32/32
f 168/32/33 165/32/33 161/32/33 164/32/33
f 77/32/30 78/32/30 166/32/30 165/32/30
f 78/32/31 79/32/31 167/32/31 166/32/31
f 79/32/32 80/32/32 168/32/32 167/32/32
f 80/32/33 77/32/33 165/32/33 168/32/33
f 169/32/34 170/32/34 82/32/34 81/32/34
f 170/32/17 171/32/17 83/32/17 82/32/17
f 171/32/35 172/32/35 84/32/35 83/32/35
f 172/32/18 169/32/18 81/32/18 84/32/18
f 173/32/34 174/32/34 170/32/34 169/32/34
f 174/32/17 175/32/17 171/32/17 170/32/17
f 175/32/35 176/32/35 172/32/35 171/32/35
f 176/32/18 173/32/18 169/32/18 172/32/18
f 177/32/34 178/32/34 174/32/34 173/32/34
f 178/32/17 179/32/17 175/32/17 174/32/17
f 179/32/35 180/32/35 176/32/35 175/32/35
f 180/32/18 177/32/18 173/32/18 176/32/18
f 181/32/34 182/32/34 178/32/34 177/32/34
f 182/32/17 183/32/17 179/32/17 178/32/17
f 183/32/35 184/32/35 180/32/35 179/32/35
f 184/32/18 181/32/18 177/32/18 180/32/18
f 73/32/36 74/32/36 182/32/36 181/32/36
f 74/32/37 75/32/37 183/32/37 182/32/37
f 75/32/38 76/32/38 184/32/38 183/32/38
f 76/32/39 73/32/39 181/32/39 184/32/39
f 185/32/22 186/32/22 86/32/22 85/32/22
f 186/32/25 187/32/25 87/32/25 86/32/25
f 187/32/24 188/32/24 88/32/24 87/32/24
f 188/32/23 185/32/23 85/32/23 88/32/23
f 189/32/22 190/32/22 186/32/22 185/32/22
f 190/32/25 191/32/25 187/32/25 186/32/25
f 191/32/24 192/32/24 188/32/24 187/32/24
f 192/32/23 189/32/23 185/32/23 188/32/23
f 193/32/22 194/32/22 190/32/22 189/32/22
f 194/32/25 195/32/25 191/32/25 190/32/25
f 195/32/24 196/32/24 192/32/24 191/32/24
f 196/32/23 193/32/23 189/32/23 192/32/23
f 89/32/22 90/32/22 194/32/22 193/32/22
f 90/32/25 91/32/25 195/32/25 194/32/25
f 91/32/24 92/32/24 196/32/24 195/32/24
f 92/32/23 89/32/23 193/32/23 196/32/23
f 197/32/40 198/32/40 94/32/40 93/32/40
f 198/32/41 199/32/41 95/32/41 94/32/41
f 199/32/42 200/32/42 96/32/42 95/32/42
f 200/32/43 197/32/43 93/32/43 96/32/43
f 201/32/44 202/32/44 198/32/44 197/32/44
f 202/32/45 203/32/45 199/32/45 198/32/45
f 203/32/46 204/32/46 200/32/46 199/32/46
f 204/32/47 201/32/47 197/32/47 200/32/47
f 205/32/44 206/32/44 202/32/44 201/32/44
f 206/32/45 207/32/45 203/32/45 202/32/45
f 207/32/46 208/32/46 204/32/46 203/32/46
f 208/32/47 205/32/47 201/32/47 204/32/47
f 209/32/44 210/32/44 206/32/44 205/32/44
f 210/32/45 211/32/45 207/32/45 206/32/45
f 211/32/46 212/32/46 208/32/46 207/32/46
f 212/32/47 209/32/47 205/32/47 208/32/47
f 213/32/44 214/32/44 210/32/44 209/32/44
f 214/32/45 215/32/45 211/32/45 210/32/45
f 215/32/46 216/32/46 212/32/46 211/32/46
f 216/32/47 213/32/47 209/32/47 212/32/47
f 217/32/44 218/32/44 214/32/44 213/32/44
f 218/32/45 219/32/45 215/32/45 214/32/45
f 219/32/46 220/32/46 216/32/46 215/32/46
f 220/32/47 217/32/47 213/32/47 216/32/47
f 221/32/44 222/32/44 218/32/44 217/32/44
f 222/32/45 223/32/45 219/32/45 218/32/45
f 223/32/46 224/32/46 220/32/46 219/32/46
f 224/32/47 221/32/47 217/32/47 220/32/47
f 225/32/44 226/32/44 222/32/44 221/32/44
f 226/32/45 227/32/45 223/32/45 222/32/45
f 227/32/46 228/32/46 224/32/46 223/32/46
f 228/32/47 225/32/47 221/32/47 224/32/47
f 229/32/44 230/32/44 226/32/44 225/32/44
f 230/32/45 231/32/45 227/32/45 226/32/45
f 231/32/46 232/32/46 228/32/46 227/32/46
f 232/32/47 229/32/47 225/32/47 228/32/47
f 233/32/44 234/32/44 230/32/44 229/32/44
f 234/32/45 235/32/45 231/32/45 230/32/45
f 235/32/46 236/32/46 232/32/46 231/32/46
f 236/32/47 233/32/47 229/32/47 232/32/47
f 237/32/44 238/32/44 234/32/44 233/32/44
f 238/32/45 239/32/45 235/32/45 234/32/45
f 239/32/46 240/32/46 236/32/46 235/32/46
f 240/32/47 237/32/47 233/32/47 236/32/47
f 241/32/44 242/32/44 238/32/44 237/32/44
f 242/32/45 243/32/45 239/32/45 238/32/45
f 243/32/46 244/32/46 240/32/46 239/32/46
f 244/32/47 241/32/47 237/32/47 240/32/47
f 245/32/44 246/32/44 242/32/44 241/32/44
f 246/32/45 247/32/45 243/32/45 242/32/45
f 247/32/46 248/32/46 244/32/46 243/32/46
f 248/32/47 245/32/47 241/32/47 244/32/47
f 97/32/44 98/32/44 246/32/44 245/32/44
f 98/32/45 99/32/45 247/32/45 246/32/45
f 99/32/46 100/32/46 248/32/46 247/32/46
f 100/32/47 97/32/47 245/32/47 248/32/47
f 249/32/34 250/32/34 102/32/34 101/32/34
f 250/32/17 251/32/17 103/32/17 102/32/17
f 251/32/35 252/32/35 104/32/35 103/32/35
f 252/32/18 249/32/18 101/32/18 104/32/18
f 253/32/34 254/32/34 250/32/34 249/32/34
f 254/32/17 255/32/17 251/32/17 250/32/17
f 255/32/35 256/32/35 252/32/35 251/32/35
f 256/32/18 253/32/18 249/32/18 252/32/18
f 257/32/34 258/32/34 254/32/34 253/32/34
f 258/32/17 259/32/17 255/32/17 254/32/17
f 259/32/35 260/32/35 256/32/35 255/32/35
f 260/32/18 257/32/18 253/32/18 256/32/18
f 261/32/34 262/32/34 258/32/34 257/32/34
f 262/32/17 263/32/17 259/32/17 258/32/17
f 263/32/35 264/32/35 260/32/35 259/32/35
f 264/32/18 261/32/18 257/32/18 260/32/18
f 93/32/48 94/32/48 262/32/48 261/32/48
f 94/32/49 95/32/49 263/32/49 262/32/49
f 95/32/50 96/32/50 264/32/50 263/32/50
f 96/32/51 93/32/51 261/32/51 264/32/51
f 265/1/1 269/2/1 270/3/1 266/4/1
f 266/4/2 270/3/2 271/5/2 267/6/2
f 267/7/3 271/8/3 272/9/3 268/10/3
f 268/10/4 272/9/4 269/2/4 265/1/4
f 269/2/5 273/11/5 274/12/5 270/3/5
f 270/3/6 274/12/6 275/13/6 271/5/6
f 271/8/7 275/14/7 276/15/7 272/9/7
f 272/9/8 276/15/8 273/11/8 269/2/8
f 273/11/9 277/16/9 278/17/9 274/12/9
f 274/12/10 278/17/10 279/18/10 275/13/10
f 275/14/11 279/19/11 280/20/11 276/15/11
f 276/15/12 280/20/12 277/16/12 273/11/12
f 277/16/13 281/21/13 282/22/13 278/17/13
f 278/17/14 282/22/14 283/23/14 279/18/14
f 279/19/15 283/24/15 284/25/15 280/20/15
f 280/20/16 284/25/16 281/21/16 277/16/16
f 281/26/2 285/27/2 286/28/2 282/29/2
f 282/29/1 286/28/1 287/30/1 283/31/1
f 283/32/4 287/33/4 288/34/4 284/35/4
f 284/35/3 288/34/3 285/27/3 281/26/3
f 285/27/6 289/36/6 290/37/6 286/28/6
f 286/28/5 290/37/5 291/38/5 287/30/5
f 287/33/8 291/39/8 292/40/8 288/34/8
f 288/34/7 292/40/7 289/36/7 285/27/7
f 289/36/10 293/41/10 294/42/10 290/37/10
f 290/37/9 294/42/9 295/43/9 291/38/9
f 291/39/12 295/44/12 296/45/12 292/40/12
f 292/40/11 296/45/11 293/41/11 289/36/11
f 293/41/14 265/1/14 266/4/14 294/42/14
f 294/42/13 266/4/13 267/6/13 295/43/13
f 295/44/16 267/7/16 268/10/16 296/45/16
f 296/45/15 268/10/15 265/1/15 293/41/15
l 297 298
l 299 300
l 301 299
