# Blender 3.6.5
# www.blender.org
mtllib Scarf.mtl
o Scarf
v 0.418906 2.507730 -0.910280
v 0.171731 2.644781 -0.892613
v 0.340889 2.404393 -0.855460
v 0.266963 2.455362 -0.883380
v 0.057815 2.640263 -0.859960
v 0.000774 2.391696 -0.833704
v -0.104691 2.733014 -0.919821
v -0.283827 2.510163 -0.907222
v -0.220036 2.862024 -1.076938
v -0.441310 2.686180 -1.123943
v -0.173202 2.916719 -1.284616
v -0.368074 2.763414 -1.420805
v -0.020576 2.897949 -1.413714
v -0.091539 2.731474 -1.612525
v 0.134444 2.885771 -1.378345
v 0.255451 2.706593 -1.536585
v 0.207274 2.868414 -1.195342
v 0.415934 2.681687 -1.241865
v 0.146769 2.773163 -0.953259
v 0.371999 2.612210 -0.960313
v 0.057896 2.544768 -0.740471
v 0.285980 2.464000 -0.817160
v -0.033240 2.396079 -0.664510
v 0.111953 2.210270 -0.729564
v -0.206156 2.198510 -0.604376
v -0.056751 2.149368 -0.669670
v 0.404035 2.434125 -0.879034
v 0.308072 2.590698 -0.911484
v 0.220125 2.550391 -0.887960
v 0.310761 2.433375 -0.869959
v 0.102429 2.646612 -0.870208
v 0.029404 2.515938 -0.846830
v 0.157036 2.422702 -0.860208
v -0.017108 2.672516 -0.876775
v -0.194242 2.621575 -0.913510
v -0.151992 2.427591 -0.849212
v -0.178407 2.801165 -0.987079
v -0.330675 2.774107 -1.100451
v -0.385726 2.603312 -0.999645
v -0.216269 2.901535 -1.182416
v -0.270609 2.840069 -1.352757
v -0.434751 2.741618 -1.272491
v -0.103195 2.911046 -1.365938
v -0.055955 2.814696 -1.513152
v -0.249723 2.753551 -1.542635
v 0.061869 2.889792 -1.418071
v 0.194850 2.796186 -1.457557
v 0.089753 2.715832 -1.610351
v 0.186771 2.880778 -1.299931
v 0.311611 2.775070 -1.218694
v 0.367081 2.697654 -1.403177
v 0.189417 2.839272 -1.077291
v 0.259338 2.692658 -0.956668
v 0.407540 2.652828 -1.086637
v 0.097928 2.660167 -0.832736
v 0.171925 2.504223 -0.778747
v 0.336159 2.556328 -0.875282
v 0.026144 2.467889 -0.693799
v 0.039339 2.303150 -0.697028
v 0.204536 2.329225 -0.768917
v -0.137825 2.293508 -0.626062
v -0.158753 2.156956 -0.627860
v 0.030541 2.158059 -0.700758
v 0.311885 2.509165 -0.890124
v 0.129805 2.534712 -0.865217
v -0.084426 2.549982 -0.862955
v -0.282066 2.702239 -0.993363
v -0.325505 2.821582 -1.227477
v -0.176383 2.832289 -1.454350
v 0.075804 2.802812 -1.514220
v 0.276882 2.789226 -1.351674
v 0.298483 2.746065 -1.081931
v 0.216986 2.608045 -0.853845
v 0.115351 2.398568 -0.731335
v -0.056786 2.223677 -0.662366
v 0.409898 2.492522 -0.957051
v 0.159884 2.637100 -0.940694
v 0.336569 2.387663 -0.902379
v 0.264152 2.448841 -0.933293
v 0.055807 2.634539 -0.910210
v -0.000243 2.386015 -0.883779
v -0.087553 2.716928 -0.964264
v -0.266915 2.494215 -0.951837
v -0.188698 2.828634 -1.099773
v -0.409954 2.652739 -1.146645
v -0.148929 2.874245 -1.271230
v -0.344179 2.720854 -1.406848
v -0.017151 2.858676 -1.382295
v -0.089029 2.692365 -1.580880
v 0.111073 2.848094 -1.353829
v 0.233138 2.668901 -1.511217
v 0.173208 2.831202 -1.199777
v 0.382103 2.644134 -1.244053
v 0.122293 2.740977 -0.983318
v 0.346614 2.578289 -0.987717
v 0.036518 2.527975 -0.782918
v 0.266354 2.449536 -0.861423
v -0.052890 2.396632 -0.710515
v 0.092802 2.211383 -0.775761
v -0.224714 2.201965 -0.650676
v -0.074668 2.153930 -0.716127
v 0.397517 2.418064 -0.925999
v 0.299422 2.579348 -0.959530
v 0.211239 2.542651 -0.937029
v 0.307959 2.419346 -0.918430
v 0.091607 2.641418 -0.918819
v 0.027672 2.510319 -0.896997
v 0.148193 2.417911 -0.909207
v -0.007329 2.662085 -0.924924
v -0.177252 2.605585 -0.958062
v -0.143156 2.417493 -0.897692
v -0.153563 2.777610 -1.024335
v -0.299324 2.740681 -1.123198
v -0.360786 2.579634 -1.036790
v -0.185289 2.861212 -1.185769
v -0.246584 2.797547 -1.338992
v -0.403790 2.701241 -1.275746
v -0.088587 2.869679 -1.341020
v -0.053193 2.775536 -1.481555
v -0.236127 2.712255 -1.516987
v 0.051819 2.851946 -1.386104
v 0.172203 2.758493 -1.432431
v 0.079990 2.678196 -1.578264
v 0.154944 2.843028 -1.288806
v 0.277648 2.737648 -1.221824
v 0.336079 2.659772 -1.390411
v 0.158695 2.803873 -1.096128
v 0.234500 2.659661 -0.985636
v 0.376383 2.616513 -1.102521
v 0.077836 2.633821 -0.870426
v 0.151449 2.488916 -0.822240
v 0.315474 2.529430 -0.912894
v 0.004475 2.461842 -0.738809
v 0.019974 2.304032 -0.743147
v 0.184327 2.325933 -0.814640
v -0.156441 2.296259 -0.672392
v -0.177158 2.160682 -0.674207
v 0.012313 2.160949 -0.747250
v 0.306716 2.497230 -0.938721
v 0.119827 2.529611 -0.914003
v -0.075366 2.539861 -0.911347
v -0.257174 2.678622 -1.030562
v -0.294545 2.781221 -1.230734
v -0.162433 2.790977 -1.428940
v 0.065912 2.765071 -1.482175
v 0.245556 2.751390 -1.339489
v 0.267535 2.710178 -1.099357
v 0.196713 2.581828 -0.891823
v 0.094389 2.393876 -0.776748
v -0.075135 2.226824 -0.708782
vn 0.8354 0.4237 0.3502
vn 0.4596 0.7786 0.4274
vn 0.1044 0.2390 0.9654
vn 0.7105 -0.2650 0.6518
vn 0.2811 0.8312 0.4797
vn 0.1754 0.1539 0.9724
vn -0.0560 -0.5137 0.8561
vn -0.4100 -0.2717 0.8707
vn -0.0655 -0.5318 0.8443
vn 0.0864 0.7862 0.6119
vn 0.1987 0.1013 0.9748
vn 0.1019 0.6654 0.7395
vn 0.0344 0.1111 0.9932
vn 0.0053 -0.6481 0.7615
vn 0.2979 -0.6138 0.7311
vn 0.1892 0.7283 0.6587
vn -0.1803 0.2014 0.9628
vn 0.1713 0.7542 0.6339
vn -0.3378 0.3180 0.8859
vn -0.6735 -0.3253 0.6637
vn -0.4113 -0.5171 0.7506
vn 0.1026 0.8063 0.5826
vn -0.4919 0.4667 0.7350
vn 0.0242 0.8929 0.4496
vn -0.6128 0.6533 0.4446
vn -0.9763 0.0606 0.2075
vn -0.8535 -0.1406 0.5018
vn 0.0311 0.9655 0.2585
vn -0.6074 0.7918 0.0639
vn 0.0942 0.9903 0.1026
vn -0.4735 0.8380 -0.2713
vn -0.8113 0.2307 -0.5373
vn -0.9638 0.1957 -0.1808
vn 0.1497 0.9886 0.0172
vn -0.2764 0.8186 -0.5035
vn 0.1313 0.9911 -0.0231
vn -0.0548 0.7771 -0.6270
vn -0.1941 0.0934 -0.9765
vn -0.5530 0.1759 -0.8144
vn 0.0859 0.9953 -0.0437
vn 0.1959 0.7475 -0.6347
vn 0.0629 0.9979 -0.0155
vn 0.4471 0.7442 -0.4962
vn 0.6090 0.0527 -0.7914
vn 0.2175 0.0535 -0.9746
vn 0.0529 0.9972 0.0530
vn 0.6190 0.7476 -0.2409
vn 0.0265 0.9866 0.1608
vn 0.6708 0.7391 0.0617
vn 0.9921 0.0781 -0.0986
vn 0.8838 0.0688 -0.4627
vn -0.0817 0.9454 0.3155
vn 0.6130 0.7108 0.3450
vn -0.2290 0.8401 0.4917
vn 0.4922 0.6541 0.5743
vn 0.9142 0.0947 0.3940
vn 0.9768 0.0783 0.1991
vn -0.3144 0.7040 0.6368
vn 0.4021 0.5204 0.7533
vn -0.2701 0.5860 0.7640
vn 0.4059 0.3036 0.8620
vn 0.8355 -0.1802 0.5191
vn 0.8558 0.0317 0.5163
vn -0.1592 0.4943 0.8546
vn 0.4171 0.0928 0.9041
vn -0.1613 0.4858 0.8591
vn 0.3870 -0.0177 0.9219
vn 0.6928 -0.5741 0.4364
vn 0.8030 -0.3860 0.4540
vn -0.2323 0.4492 0.8627
vn 0.3669 -0.0629 0.9281
vn -0.5371 -0.1423 0.8314
vn -0.0393 -0.7599 0.6488
vn 0.2302 -0.7840 0.5765
vn 0.4424 -0.7494 0.4925
vn 0.6194 0.0638 -0.7824
vn 0.5579 -0.6427 -0.5250
vn -0.1010 -0.2354 -0.9666
vn 0.2218 0.4590 -0.8603
vn -0.1767 -0.1528 -0.9723
vn -0.0365 0.6007 -0.7986
vn -0.4716 -0.6917 -0.5470
vn -0.1088 -0.6422 -0.7588
vn -0.1966 -0.9501 -0.2422
vn -0.2000 -0.1025 -0.9744
vn -0.2076 0.6592 -0.7227
vn -0.0342 -0.1114 -0.9932
vn 0.0549 0.5788 -0.8136
vn 0.0559 -0.7693 -0.6364
vn -0.0183 -0.8397 -0.5427
vn 0.1802 -0.2013 -0.9628
vn 0.4925 0.4548 -0.7420
vn 0.3378 -0.3179 -0.8859
vn 0.6925 0.3288 -0.6421
vn -0.1915 -0.8245 -0.5324
vn -0.2414 -0.7984 -0.5517
vn 0.4919 -0.4667 -0.7351
vn 0.8602 0.1839 -0.4756
vn 0.6128 -0.6533 -0.4446
vn 0.9841 0.0143 -0.1769
vn -0.2260 -0.8305 -0.5091
vn -0.2099 -0.8860 -0.4134
vn 0.6074 -0.7918 -0.0639
vn 0.9736 -0.1239 0.1918
vn 0.4735 -0.8380 0.2713
vn 0.8373 -0.1766 0.5175
vn -0.1988 -0.9340 -0.2967
vn -0.2199 -0.9549 -0.1994
vn 0.2764 -0.8186 0.5035
vn 0.6079 -0.1770 0.7740
vn 0.0549 -0.7771 0.6270
vn 0.2541 -0.1425 0.9566
vn -0.2180 -0.9617 -0.1662
vn -0.1374 -0.9747 -0.1760
vn -0.1960 -0.7475 0.6347
vn -0.2248 -0.0865 0.9706
vn -0.4472 -0.7443 0.4960
vn -0.6634 -0.0597 0.7459
vn -0.0358 -0.9859 -0.1636
vn 0.0458 -0.9856 -0.1630
vn -0.6190 -0.7476 0.2407
vn -0.9169 -0.0493 0.3961
vn -0.6707 -0.7391 -0.0620
vn -0.9987 -0.0278 0.0420
vn 0.0967 -0.9840 -0.1496
vn 0.1266 -0.9770 -0.1714
vn -0.6129 -0.7107 -0.3453
vn -0.9791 -0.0004 -0.2032
vn -0.4925 -0.6541 -0.5741
vn -0.9448 -0.0161 -0.3273
vn 0.1559 -0.9574 -0.2429
vn 0.2383 -0.8942 -0.3790
vn -0.4023 -0.5198 -0.7536
vn -0.9127 -0.0101 -0.4085
vn -0.4058 -0.3032 -0.8622
vn -0.8969 0.1274 -0.4235
vn 0.3402 -0.7662 -0.5451
vn 0.3193 -0.6079 -0.7270
vn -0.4175 -0.0940 -0.9038
vn -0.8327 0.3527 -0.4268
vn -0.3871 0.0176 -0.9219
vn -0.7314 0.5106 -0.4520
vn 0.2607 -0.4964 -0.8280
vn 0.1861 -0.5564 -0.8098
vn -0.3669 0.0630 -0.9281
vn -0.7448 0.5266 -0.4098
vn -0.5102 -0.6609 -0.5503
vn -0.9686 -0.0669 -0.2393
vn -0.0399 -0.6779 -0.7341
vn -0.2644 -0.6574 -0.7057
vt 0.000000 0.000000
vt 0.500000 0.000000
vt 0.500000 0.500000
vt 0.000000 0.500000
vt 1.000000 0.000000
vt 1.000000 0.500000
vt 1.000000 1.000000
vt 0.500000 1.000000
vt 0.000000 1.000000
vt 0.500000 0.500000
vt 0.500000 0.500000
s 1
usemtl Scarf
f 1/1/1 28/2/2 64/3/3 27/4/4
f 28/2/2 2/5/5 29/6/6 64/3/3
f 64/3/3 29/6/6 4/7/7 30/8/8
f 27/4/4 64/3/3 30/8/8 3/9/9
f 2/1/5 31/2/10 65/10/11 29/4/6
f 31/2/10 5/5/12 32/6/13 65/10/11
f 65/10/11 32/6/13 6/7/14 33/8/15
f 29/4/6 65/10/11 33/8/15 4/9/7
f 5/1/12 34/2/16 66/10/17 32/4/13
f 34/2/16 7/5/18 35/6/19 66/10/17
f 66/10/17 35/6/19 8/7/20 36/8/21
f 32/4/13 66/10/17 36/8/21 6/9/14
f 7/1/18 37/2/22 67/10/23 35/4/19
f 37/2/22 9/5/24 38/6/25 67/10/23
f 67/10/23 38/6/25 10/7/26 39/8/27
f 35/4/19 67/10/23 39/8/27 8/9/20
f 9/1/24 40/2/28 68/10/29 38/4/25
f 40/2/28 11/5/30 41/6/31 68/10/29
f 68/10/29 41/6/31 12/7/32 42/8/33
f 38/4/25 68/10/29 42/8/33 10/9/26
f 11/1/30 43/2/34 69/10/35 41/4/31
f 43/2/34 13/5/36 44/6/37 69/10/35
f 69/10/35 44/6/37 14/7/38 45/8/39
f 41/4/31 69/10/35 45/8/39 12/9/32
f 13/1/36 46/2/40 70/10/41 44/4/37
f 46/2/40 15/5/42 47/6/43 70/10/41
f 70/10/41 47/6/43 16/7/44 48/8/45
f 44/4/37 70/10/41 48/8/45 14/9/38
f 15/1/42 49/2/46 71/10/47 47/4/43
f 49/2/46 17/5/48 50/6/49 71/10/47
f 71/10/47 50/6/49 18/7/50 51/8/51
f 47/4/43 71/10/47 51/8/51 16/9/44
f 17/1/48 52/2/52 72/10/53 50/4/49
f 52/2/52 19/5/54 53/6/55 72/10/53
f 72/10/53 53/6/55 20/7/56 54/8/57
f 50/4/49 72/10/53 54/8/57 18/9/50
f 19/1/54 55/2/58 73/10/59 53/4/55
f 55/2/58 21/5/60 56/6/61 73/10/59
f 73/10/59 56/6/61 22/7/62 57/8/63
f 53/4/55 73/10/59 57/8/63 20/9/56
f 21/1/60 58/2/64 74/10/65 56/4/61
f 58/2/64 23/5/66 59/6/67 74/10/65
f 74/10/65 59/6/67 24/7/68 60/8/69
f 56/4/61 74/10/65 60/8/69 22/9/62
f 23/1/66 61/2/70 75/11/71 59/4/67
f 61/2/70 25/5/72 62/6/73 75/11/71
f 75/11/71 62/6/73 26/7/74 63/8/75
f 59/4/67 75/11/71 63/8/75 24/9/68
f 76/1/76 102/4/77 139/3/78 103/2/79
f 103/2/79 139/3/78 104/6/80 77/5/81
f 139/3/78 105/8/82 79/7/83 104/6/80
f 102/4/77 78/9/84 105/8/82 139/3/78
f 77/1/81 104/4/80 140/10/85 106/2/86
f 106/2/86 140/10/85 107/6/87 80/5/88
f 140/10/85 108/8/89 81/7/90 107/6/87
f 104/4/80 79/9/83 108/8/89 140/10/85
f 80/1/88 107/4/87 141/10/91 109/2/92
f 109/2/92 141/10/91 110/6/93 82/5/94
f 141/10/91 111/8/95 83/7/96 110/6/93
f 107/4/87 81/9/90 111/8/95 141/10/91
f 82/1/94 110/4/93 142/10/97 112/2/98
f 112/2/98 142/10/97 113/6/99 84/5/100
f 142/10/97 114/8/101 85/7/102 113/6/99
f 110/4/93 83/9/96 114/8/101 142/10/97
f 84/1/100 113/4/99 143/10/103 115/2/104
f 115/2/104 143/10/103 116/6/105 86/5/106
f 143/10/103 117/8/107 87/7/108 116/6/105
f 113/4/99 85/9/102 117/8/107 143/10/103
f 86/1/106 116/4/105 144/10/109 118/2/110
f 118/2/110 144/10/109 119/6/111 88/5/112
f 144/10/109 120/8/113 89/7/114 119/6/111
f 116/4/105 87/9/108 120/8/113 144/10/109
f 88/1/112 119/4/111 145/10/115 121/2/116
f 121/2/116 145/10/115 122/6/117 90/5/118
f 145/10/115 123/8/119 91/7/120 122/6/117
f 119/4/111 89/9/114 123/8/119 145/10/115
f 90/1/118 122/4/117 146/10/121 124/2/122
f 124/2/122 146/10/121 125/6/123 92/5/124
f 146/10/121 126/8/125 93/7/126 125/6/123
f 122/4/117 91/9/120 126/8/125 146/10/121
f 92/1/124 125/4/123 147/10/127 127/2/128
f 127/2/128 147/10/127 128/6/129 94/5/130
f 147/10/127 129/8/131 95/7/132 128/6/129
f 125/4/123 93/9/126 129/8/131 147/10/127
f 94/1/130 128/4/129 148/10/133 130/2/134
f 130/2/134 148/10/133 131/6/135 96/5/136
f 148/10/133 132/8/137 97/7/138 131/6/135
f 128/4/129 95/9/132 132/8/137 148/10/133
f 96/1/136 131/4/135 149/10/139 133/2/140
f 133/2/140 149/10/139 134/6/141 98/5/142
f 149/10/139 135/8/143 99/7/144 134/6/141
f 131/4/135 97/9/138 135/8/143 149/10/139
f 98/1/142 134/4/141 150/11/145 136/2/146
f 136/2/146 150/11/145 137/6/147 100/5/148
f 150/11/145 138/8/149 101/7/150 137/6/147
f 134/4/141 99/9/144 138/8/149 150/11/145
f 27/4/4 3/9/9 78/9/84 102/4/77
f 1/1/1 27/4/4 102/4/77 76/1/76
f 28/2/2 1/1/1 76/1/76 103/2/79
f 2/5/5 28/2/2 103/2/79 77/5/81
f 30/8/8 4/7/7 79/7/83 105/8/82
f 3/9/9 30/8/8 105/8/82 78/9/84
f 31/2/10 2/1/5 77/1/81 106/2/86
f 5/5/12 31/2/10 106/2/86 80/5/88
f 33/8/15 6/7/14 81/7/90 108/8/89
f 4/9/7 33/8/15 108/8/89 79/9/83
f 34/2/16 5/1/12 80/1/88 109/2/92
f 7/5/18 34/2/16 109/2/92 82/5/94
f 36/8/21 8/7/20 83/7/96 111/8/95
f 6/9/14 36/8/21 111/8/95 81/9/90
f 37/2/22 7/1/18 82/1/94 112/2/98
f 9/5/24 37/2/22 112/2/98 84/5/100
f 39/8/27 10/7/26 85/7/102 114/8/101
f 8/9/20 39/8/27 114/8/101 83/9/96
f 40/2/28 9/1/24 84/1/100 115/2/104
f 11/5/30 40/2/28 115/2/104 86/5/106
f 42/8/33 12/7/32 87/7/108 117/8/107
f 10/9/26 42/8/33 117/8/107 85/9/102
f 43/2/34 11/1/30 86/1/106 118/2/110
f 13/5/36 43/2/34 118/2/110 88/5/112
f 45/8/39 14/7/38 89/7/114 120/8/113
f 12/9/32 45/8/39 120/8/113 87/9/108
f 46/2/40 13/1/36 88/1/112 121/2/116
f 15/5/42 46/2/40 121/2/116 90/5/118
f 48/8/45 16/7/44 91/7/120 123/8/119
f 14/9/38 48/8/45 123/8/119 89/9/114
f 49/2/46 15/1/42 90/1/118 124/2/122
f 17/5/48 49/2/46 124/2/122 92/5/124
f 51/8/51 18/7/50 93/7/126 126/8/125
f 16/9/44 51/8/51 126/8/125 91/9/120
f 52/2/52 17/1/48 92/1/124 127/2/128
f 19/5/54 52/2/52 127/2/128 94/5/130
f 54/8/57 20/7/56 95/7/132 129/8/131
f 18/9/50 54/8/57 129/8/131 93/9/126
f 55/2/58 19/1/54 94/1/130 130/2/134
f 21/5/60 55/2/58 130/2/134 96/5/136
f 57/8/63 22/7/62 97/7/138 132/8/137
f 20/9/56 57/8/63 132/8/137 95/9/132
f 58/2/64 21/1/60 96/1/136 133/2/140
f 23/5/66 58/2/64 133/2/140 98/5/142
f 60/8/69 24/7/68 99/7/144 135/8/143
f 22/9/62 60/8/69 135/8/143 97/9/138
f 61/2/70 23/1/66 98/1/142 136/2/146
f 25/5/72 61/2/70 136/2/146 100/5/148
f 62/6/73 25/5/72 100/5/148 137/6/147
f 26/7/74 62/6/73 137/6/147 101/7/150
f 63/8/75 26/7/74 101/7/150 138/8/149
f 24/9/68 63/8/75 138/8/149 99/9/144
